<svg width="375" height="334" viewBox="0 0 375 334" fill="none" xmlns="http://www.w3.org/2000/svg">
<g opacity="0.5" filter="url(#filter0_d_433_750)">
<path fill-rule="evenodd" clip-rule="evenodd" d="M99.553 148.729C153.955 129.655 183.113 101.657 198.657 73.8012C214.195 45.9572 216.1 18.3124 216.1 0H215.1C215.1 18.2443 213.2 45.6882 197.784 73.3139C182.374 100.928 153.426 128.78 99.2221 147.786C55.6083 163.078 30.0589 196 15.8435 230.892C1.6318 265.776 -1.26936 302.666 0.425573 326L1.42295 325.927C-0.262836 302.719 2.62547 265.988 16.7696 231.27C30.9099 196.561 56.2824 163.901 99.553 148.729ZM190.419 148.729C244.821 129.655 273.979 101.657 289.523 73.8012C305.062 45.9572 306.966 18.3124 306.966 0H305.966C305.966 18.2443 304.066 45.6882 288.65 73.3139C273.24 100.928 244.292 128.78 190.088 147.786C146.474 163.078 120.925 196 106.71 230.892C92.4978 265.776 89.5967 302.666 91.2916 326L92.289 325.927C90.6032 302.719 93.4915 265.988 107.636 231.27C121.776 196.561 147.148 163.901 190.419 148.729ZM215.993 73.8012C200.448 101.657 171.29 129.655 116.889 148.729C73.618 163.901 48.2454 196.561 34.1051 231.27C19.961 265.988 17.0727 302.719 18.7585 325.927L17.7611 326C16.0662 302.666 18.9673 265.776 33.179 230.892C47.3944 196 72.9438 163.078 116.558 147.786C170.761 128.78 199.71 100.928 215.12 73.3139C230.536 45.6882 232.435 18.2443 232.435 0H233.435C233.435 18.3124 231.531 45.9572 215.993 73.8012ZM207.755 148.729C262.157 129.655 291.315 101.657 306.859 73.8012C322.397 45.9572 324.302 18.3124 324.302 0H323.302C323.302 18.2443 321.402 45.6882 305.986 73.3139C290.576 100.928 261.628 128.78 207.424 147.786C163.81 163.078 138.261 196 124.045 230.892C109.834 265.776 106.933 302.666 108.628 326L109.625 325.927C107.939 302.719 110.827 265.988 124.971 231.27C139.112 196.561 164.484 163.901 207.755 148.729ZM232.896 73.8012C217.352 101.657 188.194 129.655 133.792 148.729C90.5215 163.901 65.149 196.561 51.0087 231.27C36.8646 265.988 33.9763 302.719 35.662 325.927L34.6647 326C32.9697 302.666 35.8709 265.776 50.0826 230.892C64.298 196 89.8474 163.078 133.461 147.786C187.665 128.78 216.613 100.928 232.023 73.3139C247.44 45.6882 249.339 18.2443 249.339 0H250.339C250.339 18.3124 248.435 45.9572 232.896 73.8012ZM224.658 148.729C279.06 129.655 308.218 101.657 323.763 73.8012C339.301 45.9572 341.205 18.3124 341.205 0H340.205C340.205 18.2443 338.306 45.6882 322.889 73.3139C307.479 100.928 278.531 128.78 224.328 147.786C180.714 163.078 155.164 196 140.949 230.892C126.737 265.776 123.836 302.666 125.531 326L126.528 325.927C124.843 302.719 127.731 265.988 141.875 231.27C156.015 196.561 181.388 163.901 224.658 148.729ZM249.8 73.8012C234.255 101.657 205.097 129.655 150.696 148.729C107.425 163.901 82.0526 196.561 67.9122 231.27C53.7681 265.988 50.8798 302.719 52.5656 325.927L51.5682 326C49.8733 302.666 52.7745 265.776 66.9861 230.892C81.2015 196 106.751 163.078 150.365 147.786C204.568 128.78 233.517 100.928 248.927 73.3139C264.343 45.6882 266.242 18.2443 266.242 0H267.242C267.242 18.3124 265.338 45.9572 249.8 73.8012ZM241.562 148.729C295.964 129.655 325.122 101.657 340.666 73.8012C356.205 45.9572 358.109 18.3124 358.109 0H357.109C357.109 18.2443 355.209 45.6882 339.793 73.3139C324.383 100.928 295.435 128.78 241.231 147.786C197.617 163.078 172.068 196 157.853 230.892C143.641 265.776 140.74 302.666 142.435 326L143.432 325.927C141.746 302.719 144.635 265.988 158.779 231.27C172.919 196.561 198.292 163.901 241.562 148.729ZM266.703 73.8012C251.159 101.657 222.001 129.655 167.599 148.729C124.329 163.901 98.9561 196.561 84.8157 231.27C70.6717 265.988 67.7833 302.719 69.4691 325.927L68.4718 326C66.7768 302.666 69.678 265.776 83.8896 230.892C98.105 196 123.654 163.078 167.268 147.786C221.472 128.78 250.42 100.928 265.83 73.3139C281.247 45.6882 283.146 18.2443 283.146 0H284.146C284.146 18.3124 282.242 45.9572 266.703 73.8012ZM258.466 148.729C312.867 129.655 342.025 101.657 357.57 73.8012C373.108 45.9572 375.012 18.3124 375.012 0H374.012C374.012 18.2443 372.113 45.6882 356.697 73.3139C341.287 100.928 312.338 128.78 258.135 147.786C214.521 163.078 188.971 196 174.756 230.892C160.544 265.776 157.643 302.666 159.338 326L160.335 325.927C158.65 302.719 161.538 265.988 175.682 231.27C189.822 196.561 215.195 163.901 258.466 148.729Z" fill="url(#paint0_linear_433_750)" shape-rendering="crispEdges"/>
</g>
<defs>
<filter id="filter0_d_433_750" x="-4.00787" y="0" width="383.02" height="334" filterUnits="userSpaceOnUse" color-interpolation-filters="sRGB">
<feFlood flood-opacity="0" result="BackgroundImageFix"/>
<feColorMatrix in="SourceAlpha" type="matrix" values="0 0 0 0 0 0 0 0 0 0 0 0 0 0 0 0 0 0 127 0" result="hardAlpha"/>
<feOffset dy="4"/>
<feGaussianBlur stdDeviation="2"/>
<feComposite in2="hardAlpha" operator="out"/>
<feColorMatrix type="matrix" values="0 0 0 0 0 0 0 0 0 0 0 0 0 0 0 0 0 0 0.25 0"/>
<feBlend mode="normal" in2="BackgroundImageFix" result="effect1_dropShadow_433_750"/>
<feBlend mode="normal" in="SourceGraphic" in2="effect1_dropShadow_433_750" result="shape"/>
</filter>
<linearGradient id="paint0_linear_433_750" x1="318.85" y1="-12.8186" x2="37.6118" y2="266.32" gradientUnits="userSpaceOnUse">
<stop stop-color="#8B010B"/>
<stop offset="1" stop-color="white" stop-opacity="0"/>
</linearGradient>
</defs>
</svg>
